<?xml version="1.0" encoding="iso-8859-1"?>
<!-- Generator: Adobe Illustrator 21.0.0, SVG Export Plug-In . SVG Version: 6.00 Build 0)  -->
<svg version="1.1" xmlns="http://www.w3.org/2000/svg" xmlns:xlink="http://www.w3.org/1999/xlink" x="0px" y="0px"
	 viewBox="0 0 32 32" style="enable-background:new 0 0 32 32;" xml:space="preserve">
<g id="Monkey">
	<g>
		<path style="fill:#A6673A;" d="M5,24c-2.758,0-5-2.243-5-5s2.242-5,5-5s5,2.243,5,5S7.758,24,5,24z"/>
		<circle style="fill:#FFDFB3;" cx="5" cy="19" r="3"/>
	</g>
	<g>
		<path style="fill:#99522E;" d="M27,24c-2.758,0-5-2.243-5-5s2.242-5,5-5s5,2.243,5,5S29.758,24,27,24z"/>
		<circle style="fill:#FFCC99;" cx="27" cy="19" r="3"/>
	</g>
	<g>
		<path style="fill:#A6673A;" d="M16,32C9.383,32,4,26.617,4,20v-2C4,11.383,9.383,6,16,6s12,5.383,12,12v2
			C28,26.617,22.617,32,16,32z"/>
	</g>
	<path style="fill:#99522E;" d="M28,20v-2c0-6.617-5.383-12-12-12v26C22.617,32,28,26.617,28,20z"/>
	<g>
		<rect style="fill:none;" width="32" height="32"/>
		<g>
			<path style="fill:#FFDFB3;" d="M16,28c-2.205,0-4-1.794-4-4v-2.101c-1.113-0.226-2.121-0.825-2.859-1.721
				c-0.955-1.157-1.334-2.679-1.045-4.174c0.373-1.907,1.9-3.468,3.803-3.884c1.469-0.321,2.943,0.01,4.102,0.895
				c1.158-0.885,2.633-1.216,4.102-0.895l0,0c1.902,0.416,3.43,1.977,3.803,3.883c0.289,1.496-0.09,3.018-1.045,4.175
				c-0.738,0.896-1.746,1.495-2.859,1.721V24C20,26.206,18.205,28,16,28z"/>
		</g>
		<path style="fill:#FFCC99;" d="M20,24v-2.101c1.113-0.226,2.121-0.825,2.859-1.721c0.955-1.157,1.334-2.679,1.045-4.175
			c-0.373-1.906-1.9-3.467-3.803-3.883c-1.469-0.321-2.943,0.01-4.102,0.895V28C18.205,28,20,26.206,20,24z"/>
		<circle style="fill:#736056;" cx="13" cy="17" r="1"/>
		<circle style="fill:#736056;" cx="19" cy="17" r="1"/>
	</g>
	<g>
		<path style="fill:#F26C9A;" d="M20.5,8h-9c-0.309,0-0.6-0.142-0.789-0.385c-0.189-0.242-0.256-0.559-0.182-0.857l1.5-6
			C12.141,0.313,12.541,0,13,0h6c0.459,0,0.859,0.313,0.971,0.758l1.5,6c0.074,0.299,0.008,0.615-0.182,0.857
			C21.1,7.858,20.809,8,20.5,8z"/>
	</g>
	<path style="fill:#D95782;" d="M19.971,0.758C19.859,0.313,19.459,0,19,0h-3v8h4.5c0.309,0,0.6-0.142,0.789-0.385
		c0.189-0.242,0.256-0.559,0.182-0.857L19.971,0.758z"/>
	<g>
		<path style="fill:#D95782;" d="M23,8H9C8.447,8,8,7.553,8,7s0.447-1,1-1h14c0.553,0,1,0.447,1,1S23.553,8,23,8z"/>
	</g>
	<path style="fill:#CC527A;" d="M23,6h-7v2h7c0.553,0,1-0.447,1-1S23.553,6,23,6z"/>
</g>
<g id="Layer_1">
</g>
</svg>
